<mxfile host="app.diagrams.net" modified="2021-09-13T10:02:57.936Z" agent="5.0 (Windows NT 10.0; Win64; x64) AppleWebKit/537.36 (KHTML, like Gecko) Chrome/93.0.4577.63 Safari/537.36" etag="5BQz4qTvMr6iLsz_kX6i" version="15.1.4" type="github">
  <diagram id="R2lEEEUBdFMjLlhIrx00" name="Page-1">
    <mxGraphModel dx="2031" dy="1189" grid="1" gridSize="10" guides="1" tooltips="1" connect="1" arrows="1" fold="1" page="1" pageScale="1" pageWidth="850" pageHeight="1100" math="0" shadow="0" extFonts="Permanent Marker^https://fonts.googleapis.com/css?family=Permanent+Marker">
      <root>
        <mxCell id="0" />
        <mxCell id="1" parent="0" />
        <mxCell id="aUbExDcBJ5LjvKla5rTK-3" value="&lt;font style=&quot;font-size: 14px&quot;&gt;PERSON&lt;/font&gt;" style="whiteSpace=wrap;html=1;align=center;" vertex="1" parent="1">
          <mxGeometry x="390" y="330" width="100" height="40" as="geometry" />
        </mxCell>
        <mxCell id="aUbExDcBJ5LjvKla5rTK-4" value="&lt;font style=&quot;font-size: 14px&quot;&gt;VOLUNTEER&lt;/font&gt;" style="whiteSpace=wrap;html=1;align=center;" vertex="1" parent="1">
          <mxGeometry x="390" y="570" width="100" height="40" as="geometry" />
        </mxCell>
        <mxCell id="aUbExDcBJ5LjvKla5rTK-5" value="&lt;font style=&quot;font-size: 14px&quot;&gt;EMPLOYEE&lt;/font&gt;" style="whiteSpace=wrap;html=1;align=center;" vertex="1" parent="1">
          <mxGeometry x="170" y="570" width="100" height="40" as="geometry" />
        </mxCell>
        <mxCell id="aUbExDcBJ5LjvKla5rTK-7" value="&lt;font style=&quot;font-size: 14px&quot;&gt;DONOR&lt;/font&gt;" style="whiteSpace=wrap;html=1;align=center;" vertex="1" parent="1">
          <mxGeometry x="620" y="570" width="100" height="40" as="geometry" />
        </mxCell>
        <mxCell id="aUbExDcBJ5LjvKla5rTK-8" value="&lt;font style=&quot;font-size: 14px&quot;&gt;ITEM&lt;/font&gt;" style="shape=ext;margin=3;double=1;whiteSpace=wrap;html=1;align=center;" vertex="1" parent="1">
          <mxGeometry x="620" y="800" width="100" height="40" as="geometry" />
        </mxCell>
        <mxCell id="aUbExDcBJ5LjvKla5rTK-9" value="&lt;font style=&quot;font-size: 14px&quot;&gt;DONATE&lt;/font&gt;" style="shape=rhombus;double=1;perimeter=rhombusPerimeter;whiteSpace=wrap;html=1;align=center;" vertex="1" parent="1">
          <mxGeometry x="605" y="670" width="130" height="60" as="geometry" />
        </mxCell>
        <mxCell id="aUbExDcBJ5LjvKla5rTK-10" value="&lt;font size=&quot;3&quot;&gt;&lt;u&gt;SSN&lt;/u&gt;&lt;/font&gt;" style="ellipse;whiteSpace=wrap;html=1;align=center;" vertex="1" parent="1">
          <mxGeometry x="190" y="250" width="100" height="40" as="geometry" />
        </mxCell>
        <mxCell id="aUbExDcBJ5LjvKla5rTK-11" value="&lt;font size=&quot;3&quot;&gt;Name&lt;/font&gt;" style="ellipse;whiteSpace=wrap;html=1;align=center;" vertex="1" parent="1">
          <mxGeometry x="230" y="200" width="100" height="40" as="geometry" />
        </mxCell>
        <mxCell id="aUbExDcBJ5LjvKla5rTK-12" value="&lt;font size=&quot;3&quot;&gt;Address&lt;/font&gt;" style="ellipse;whiteSpace=wrap;html=1;align=center;" vertex="1" parent="1">
          <mxGeometry x="440" y="160" width="100" height="40" as="geometry" />
        </mxCell>
        <mxCell id="aUbExDcBJ5LjvKla5rTK-13" value="&lt;font size=&quot;3&quot;&gt;City&lt;/font&gt;" style="ellipse;whiteSpace=wrap;html=1;align=center;" vertex="1" parent="1">
          <mxGeometry x="540" y="200" width="100" height="40" as="geometry" />
        </mxCell>
        <mxCell id="aUbExDcBJ5LjvKla5rTK-14" value="&lt;font size=&quot;3&quot;&gt;State&lt;/font&gt;" style="ellipse;whiteSpace=wrap;html=1;align=center;" vertex="1" parent="1">
          <mxGeometry x="585" y="250" width="100" height="40" as="geometry" />
        </mxCell>
        <mxCell id="aUbExDcBJ5LjvKla5rTK-15" value="&lt;font size=&quot;3&quot;&gt;Telephone&lt;/font&gt;" style="ellipse;whiteSpace=wrap;html=1;align=center;" vertex="1" parent="1">
          <mxGeometry x="320" y="160" width="100" height="40" as="geometry" />
        </mxCell>
        <mxCell id="aUbExDcBJ5LjvKla5rTK-16" value="&lt;font size=&quot;3&quot;&gt;Date_Hired&lt;/font&gt;" style="ellipse;whiteSpace=wrap;html=1;align=center;" vertex="1" parent="1">
          <mxGeometry x="170" y="640" width="100" height="40" as="geometry" />
        </mxCell>
        <mxCell id="aUbExDcBJ5LjvKla5rTK-17" value="&lt;font size=&quot;3&quot;&gt;Skill&lt;/font&gt;" style="ellipse;whiteSpace=wrap;html=1;align=center;" vertex="1" parent="1">
          <mxGeometry x="390" y="640" width="100" height="40" as="geometry" />
        </mxCell>
        <mxCell id="aUbExDcBJ5LjvKla5rTK-18" value="&lt;font size=&quot;3&quot;&gt;&lt;u&gt;Identity&lt;/u&gt;&lt;/font&gt;" style="ellipse;whiteSpace=wrap;html=1;align=center;" vertex="1" parent="1">
          <mxGeometry x="530" y="880" width="100" height="40" as="geometry" />
        </mxCell>
        <mxCell id="aUbExDcBJ5LjvKla5rTK-19" value="&lt;font size=&quot;3&quot;&gt;Description&lt;/font&gt;" style="ellipse;whiteSpace=wrap;html=1;align=center;" vertex="1" parent="1">
          <mxGeometry x="700" y="880" width="100" height="40" as="geometry" />
        </mxCell>
        <mxCell id="aUbExDcBJ5LjvKla5rTK-20" value="" style="shape=link;html=1;rounded=0;entryX=0.5;entryY=0;entryDx=0;entryDy=0;exitX=0.5;exitY=1;exitDx=0;exitDy=0;" edge="1" parent="1" source="aUbExDcBJ5LjvKla5rTK-7" target="aUbExDcBJ5LjvKla5rTK-9">
          <mxGeometry relative="1" as="geometry">
            <mxPoint x="370" y="650" as="sourcePoint" />
            <mxPoint x="530" y="650" as="targetPoint" />
          </mxGeometry>
        </mxCell>
        <mxCell id="aUbExDcBJ5LjvKla5rTK-21" value="1" style="resizable=0;html=1;align=right;verticalAlign=bottom;" connectable="0" vertex="1" parent="aUbExDcBJ5LjvKla5rTK-20">
          <mxGeometry x="1" relative="1" as="geometry">
            <mxPoint x="-5" as="offset" />
          </mxGeometry>
        </mxCell>
        <mxCell id="aUbExDcBJ5LjvKla5rTK-22" value="" style="shape=link;html=1;rounded=0;exitX=0.5;exitY=0;exitDx=0;exitDy=0;entryX=0.5;entryY=1;entryDx=0;entryDy=0;" edge="1" parent="1" source="aUbExDcBJ5LjvKla5rTK-8" target="aUbExDcBJ5LjvKla5rTK-9">
          <mxGeometry relative="1" as="geometry">
            <mxPoint x="530" y="720" as="sourcePoint" />
            <mxPoint x="690" y="720" as="targetPoint" />
          </mxGeometry>
        </mxCell>
        <mxCell id="aUbExDcBJ5LjvKla5rTK-23" value="N" style="resizable=0;html=1;align=right;verticalAlign=bottom;" connectable="0" vertex="1" parent="aUbExDcBJ5LjvKla5rTK-22">
          <mxGeometry x="1" relative="1" as="geometry">
            <mxPoint x="-5" y="20" as="offset" />
          </mxGeometry>
        </mxCell>
        <mxCell id="aUbExDcBJ5LjvKla5rTK-24" value="" style="endArrow=none;html=1;rounded=0;exitX=0.5;exitY=1;exitDx=0;exitDy=0;entryX=0.5;entryY=0;entryDx=0;entryDy=0;" edge="1" parent="1" source="aUbExDcBJ5LjvKla5rTK-4" target="aUbExDcBJ5LjvKla5rTK-17">
          <mxGeometry relative="1" as="geometry">
            <mxPoint x="350" y="640" as="sourcePoint" />
            <mxPoint x="510" y="640" as="targetPoint" />
          </mxGeometry>
        </mxCell>
        <mxCell id="aUbExDcBJ5LjvKla5rTK-25" value="" style="endArrow=none;html=1;rounded=0;exitX=0.5;exitY=1;exitDx=0;exitDy=0;entryX=0.5;entryY=0;entryDx=0;entryDy=0;" edge="1" parent="1" source="aUbExDcBJ5LjvKla5rTK-5" target="aUbExDcBJ5LjvKla5rTK-16">
          <mxGeometry relative="1" as="geometry">
            <mxPoint x="450" y="620" as="sourcePoint" />
            <mxPoint x="390" y="650" as="targetPoint" />
          </mxGeometry>
        </mxCell>
        <mxCell id="aUbExDcBJ5LjvKla5rTK-26" value="" style="endArrow=none;html=1;rounded=0;exitX=0.5;exitY=0;exitDx=0;exitDy=0;entryX=1;entryY=0.5;entryDx=0;entryDy=0;" edge="1" parent="1" source="aUbExDcBJ5LjvKla5rTK-3" target="aUbExDcBJ5LjvKla5rTK-10">
          <mxGeometry relative="1" as="geometry">
            <mxPoint x="460" y="540" as="sourcePoint" />
            <mxPoint x="400" y="570" as="targetPoint" />
          </mxGeometry>
        </mxCell>
        <mxCell id="aUbExDcBJ5LjvKla5rTK-27" value="" style="endArrow=none;html=1;rounded=0;exitX=0.5;exitY=0;exitDx=0;exitDy=0;entryX=1;entryY=1;entryDx=0;entryDy=0;" edge="1" parent="1" source="aUbExDcBJ5LjvKla5rTK-3" target="aUbExDcBJ5LjvKla5rTK-11">
          <mxGeometry relative="1" as="geometry">
            <mxPoint x="450" y="340" as="sourcePoint" />
            <mxPoint x="300" y="280" as="targetPoint" />
          </mxGeometry>
        </mxCell>
        <mxCell id="aUbExDcBJ5LjvKla5rTK-28" value="" style="endArrow=none;html=1;rounded=0;exitX=0.5;exitY=0;exitDx=0;exitDy=0;entryX=0.5;entryY=1;entryDx=0;entryDy=0;" edge="1" parent="1" source="aUbExDcBJ5LjvKla5rTK-3" target="aUbExDcBJ5LjvKla5rTK-15">
          <mxGeometry relative="1" as="geometry">
            <mxPoint x="460" y="350" as="sourcePoint" />
            <mxPoint x="310" y="290" as="targetPoint" />
          </mxGeometry>
        </mxCell>
        <mxCell id="aUbExDcBJ5LjvKla5rTK-29" value="" style="endArrow=none;html=1;rounded=0;exitX=0.5;exitY=0;exitDx=0;exitDy=0;entryX=0.5;entryY=1;entryDx=0;entryDy=0;" edge="1" parent="1" source="aUbExDcBJ5LjvKla5rTK-3" target="aUbExDcBJ5LjvKla5rTK-12">
          <mxGeometry relative="1" as="geometry">
            <mxPoint x="450" y="340" as="sourcePoint" />
            <mxPoint x="320" y="300" as="targetPoint" />
          </mxGeometry>
        </mxCell>
        <mxCell id="aUbExDcBJ5LjvKla5rTK-30" value="" style="endArrow=none;html=1;rounded=0;exitX=0.5;exitY=0;exitDx=0;exitDy=0;entryX=0;entryY=1;entryDx=0;entryDy=0;" edge="1" parent="1" source="aUbExDcBJ5LjvKla5rTK-3" target="aUbExDcBJ5LjvKla5rTK-13">
          <mxGeometry relative="1" as="geometry">
            <mxPoint x="460" y="350" as="sourcePoint" />
            <mxPoint x="330" y="310" as="targetPoint" />
          </mxGeometry>
        </mxCell>
        <mxCell id="aUbExDcBJ5LjvKla5rTK-31" value="" style="endArrow=none;html=1;rounded=0;exitX=0.5;exitY=0;exitDx=0;exitDy=0;entryX=0;entryY=0.5;entryDx=0;entryDy=0;" edge="1" parent="1" source="aUbExDcBJ5LjvKla5rTK-3" target="aUbExDcBJ5LjvKla5rTK-14">
          <mxGeometry relative="1" as="geometry">
            <mxPoint x="470" y="360" as="sourcePoint" />
            <mxPoint x="340" y="320" as="targetPoint" />
          </mxGeometry>
        </mxCell>
        <mxCell id="aUbExDcBJ5LjvKla5rTK-33" value="&lt;font style=&quot;font-size: 18px&quot;&gt;o&lt;/font&gt;" style="ellipse;whiteSpace=wrap;html=1;align=center;" vertex="1" parent="1">
          <mxGeometry x="420" y="430" width="40" height="40" as="geometry" />
        </mxCell>
        <mxCell id="aUbExDcBJ5LjvKla5rTK-34" value="" style="endArrow=none;html=1;rounded=0;entryX=0.5;entryY=1;entryDx=0;entryDy=0;exitX=0.5;exitY=0;exitDx=0;exitDy=0;" edge="1" parent="1" source="aUbExDcBJ5LjvKla5rTK-33" target="aUbExDcBJ5LjvKla5rTK-3">
          <mxGeometry relative="1" as="geometry">
            <mxPoint x="150" y="530" as="sourcePoint" />
            <mxPoint x="310" y="530" as="targetPoint" />
          </mxGeometry>
        </mxCell>
        <mxCell id="aUbExDcBJ5LjvKla5rTK-36" value="" style="endArrow=none;html=1;rounded=0;exitX=0.5;exitY=0;exitDx=0;exitDy=0;entryX=1;entryY=0.5;entryDx=0;entryDy=0;entryPerimeter=0;" edge="1" parent="1" source="aUbExDcBJ5LjvKla5rTK-4" target="aUbExDcBJ5LjvKla5rTK-44">
          <mxGeometry relative="1" as="geometry">
            <mxPoint x="230" y="579.9999999999998" as="sourcePoint" />
            <mxPoint x="440" y="530" as="targetPoint" />
          </mxGeometry>
        </mxCell>
        <mxCell id="aUbExDcBJ5LjvKla5rTK-38" value="" style="endArrow=none;html=1;rounded=0;entryX=0.5;entryY=1;entryDx=0;entryDy=0;exitX=0.5;exitY=0;exitDx=0;exitDy=0;" edge="1" parent="1" source="aUbExDcBJ5LjvKla5rTK-18" target="aUbExDcBJ5LjvKla5rTK-8">
          <mxGeometry relative="1" as="geometry">
            <mxPoint x="440" y="589.9999999999998" as="sourcePoint" />
            <mxPoint x="440" y="489.9999999999998" as="targetPoint" />
          </mxGeometry>
        </mxCell>
        <mxCell id="aUbExDcBJ5LjvKla5rTK-39" value="" style="endArrow=none;html=1;rounded=0;entryX=0.5;entryY=1;entryDx=0;entryDy=0;exitX=0.5;exitY=0;exitDx=0;exitDy=0;" edge="1" parent="1" source="aUbExDcBJ5LjvKla5rTK-19" target="aUbExDcBJ5LjvKla5rTK-8">
          <mxGeometry relative="1" as="geometry">
            <mxPoint x="760" y="890" as="sourcePoint" />
            <mxPoint x="680" y="850" as="targetPoint" />
          </mxGeometry>
        </mxCell>
        <mxCell id="aUbExDcBJ5LjvKla5rTK-40" value="" style="shape=requiredInterface;html=1;verticalLabelPosition=bottom;rotation=-210;" vertex="1" parent="1">
          <mxGeometry x="300.13" y="490.48" width="38.08" height="40" as="geometry" />
        </mxCell>
        <mxCell id="aUbExDcBJ5LjvKla5rTK-42" value="" style="endArrow=none;html=1;rounded=0;entryX=0.5;entryY=0;entryDx=0;entryDy=0;exitX=1;exitY=0.5;exitDx=0;exitDy=0;exitPerimeter=0;" edge="1" parent="1" source="aUbExDcBJ5LjvKla5rTK-40" target="aUbExDcBJ5LjvKla5rTK-5">
          <mxGeometry relative="1" as="geometry">
            <mxPoint x="620" y="900" as="sourcePoint" />
            <mxPoint x="710" y="860" as="targetPoint" />
          </mxGeometry>
        </mxCell>
        <mxCell id="aUbExDcBJ5LjvKla5rTK-43" value="" style="endArrow=none;html=1;rounded=0;entryX=1;entryY=0.5;entryDx=0;entryDy=0;entryPerimeter=0;exitX=0;exitY=0.5;exitDx=0;exitDy=0;" edge="1" parent="1" source="aUbExDcBJ5LjvKla5rTK-33" target="aUbExDcBJ5LjvKla5rTK-40">
          <mxGeometry relative="1" as="geometry">
            <mxPoint x="210" y="620" as="sourcePoint" />
            <mxPoint x="370" y="620" as="targetPoint" />
          </mxGeometry>
        </mxCell>
        <mxCell id="aUbExDcBJ5LjvKla5rTK-44" value="" style="shape=requiredInterface;html=1;verticalLabelPosition=bottom;rotation=90;" vertex="1" parent="1">
          <mxGeometry x="422.83" y="497.16" width="34.33" height="40" as="geometry" />
        </mxCell>
        <mxCell id="aUbExDcBJ5LjvKla5rTK-45" value="" style="shape=requiredInterface;html=1;verticalLabelPosition=bottom;rotation=30;" vertex="1" parent="1">
          <mxGeometry x="546.34" y="490.48" width="38.66" height="40" as="geometry" />
        </mxCell>
        <mxCell id="aUbExDcBJ5LjvKla5rTK-46" value="" style="endArrow=none;html=1;rounded=0;exitX=0.5;exitY=1;exitDx=0;exitDy=0;entryX=1;entryY=0.5;entryDx=0;entryDy=0;entryPerimeter=0;" edge="1" parent="1" source="aUbExDcBJ5LjvKla5rTK-33" target="aUbExDcBJ5LjvKla5rTK-44">
          <mxGeometry relative="1" as="geometry">
            <mxPoint x="450" y="579.9999999999998" as="sourcePoint" />
            <mxPoint x="450" y="544.3300000000002" as="targetPoint" />
          </mxGeometry>
        </mxCell>
        <mxCell id="aUbExDcBJ5LjvKla5rTK-47" value="" style="endArrow=none;html=1;rounded=0;exitX=1;exitY=0.5;exitDx=0;exitDy=0;entryX=0.5;entryY=0;entryDx=0;entryDy=0;exitPerimeter=0;" edge="1" parent="1" source="aUbExDcBJ5LjvKla5rTK-45" target="aUbExDcBJ5LjvKla5rTK-7">
          <mxGeometry relative="1" as="geometry">
            <mxPoint x="460" y="589.9999999999998" as="sourcePoint" />
            <mxPoint x="460" y="554.3300000000002" as="targetPoint" />
          </mxGeometry>
        </mxCell>
        <mxCell id="aUbExDcBJ5LjvKla5rTK-48" value="" style="endArrow=none;html=1;rounded=0;exitX=1;exitY=0.5;exitDx=0;exitDy=0;entryX=1;entryY=0.5;entryDx=0;entryDy=0;exitPerimeter=0;" edge="1" parent="1" source="aUbExDcBJ5LjvKla5rTK-45" target="aUbExDcBJ5LjvKla5rTK-33">
          <mxGeometry relative="1" as="geometry">
            <mxPoint x="621.0703980740755" y="529.9949999999999" as="sourcePoint" />
            <mxPoint x="700" y="579.9999999999998" as="targetPoint" />
          </mxGeometry>
        </mxCell>
        <mxCell id="aUbExDcBJ5LjvKla5rTK-52" style="edgeStyle=orthogonalEdgeStyle;rounded=0;orthogonalLoop=1;jettySize=auto;html=1;exitX=0.5;exitY=1;exitDx=0;exitDy=0;entryX=1;entryY=1;entryDx=0;entryDy=0;" edge="1" parent="1" source="aUbExDcBJ5LjvKla5rTK-19" target="aUbExDcBJ5LjvKla5rTK-19">
          <mxGeometry relative="1" as="geometry" />
        </mxCell>
      </root>
    </mxGraphModel>
  </diagram>
</mxfile>
